HIERARCHY
ROOT Hips
{
	OFFSET 0.00000 0.00000 0.00000
	CHANNELS 6 Xposition Yposition Zposition Zrotation Yrotation Xrotation 
	JOINT LHipJoint
	{
		OFFSET 0 0 0
		CHANNELS 3 Zrotation Yrotation Xrotation
		JOINT LeftHip
		{
			OFFSET 1.48831 -1.59570 0.95625
			CHANNELS 3 Zrotation Yrotation Xrotation
			JOINT LeftKnee
			{
				OFFSET 2.20856 -6.06797 0.00000
				CHANNELS 3 Zrotation Yrotation Xrotation
				JOINT LeftAnkle
				{
					OFFSET 2.62924 -7.22379 0.00000
					CHANNELS 3 Zrotation Yrotation Xrotation
					JOINT LeftToe
					{
						OFFSET 0.16802 -0.46163 2.41673
						CHANNELS 3 Zrotation Yrotation Xrotation
						End Site
						{
							OFFSET 0.00000 -0.00000 1.23760
						}
					}
				}
			}
		}
	}
	JOINT RHipJoint
	{
		OFFSET 0 0 0
		CHANNELS 3 Zrotation Yrotation Xrotation
		JOINT RightHip
		{
			OFFSET -1.56796 -1.59570 0.95625
			CHANNELS 3 Zrotation Yrotation Xrotation
			JOINT RightKnee
			{
				OFFSET -2.29239 -6.29829 0.00000
				CHANNELS 3 Zrotation Yrotation Xrotation
				JOINT RightAnkle
				{
					OFFSET -2.66963 -7.33475 0.00000
					CHANNELS 3 Zrotation Yrotation Xrotation
					JOINT RightToe
					{
						OFFSET -0.18185 -0.49964 2.34359
						CHANNELS 3 Zrotation Yrotation Xrotation
						End Site
						{
							OFFSET -0.00000 -0.00000 1.20477
						}
					}
				}
			}
		}
	}
	JOINT lowerback
	{
		OFFSET 0 0 0
		CHANNELS 3 Zrotation Yrotation Xrotation
		JOINT Chest
		{
			OFFSET 0.03505 2.15832 -0.34324
			CHANNELS 3 Zrotation Yrotation Xrotation
			JOINT Chest2
			{
				OFFSET -0.01089 2.17963 0.04689
				CHANNELS 3 Zrotation Yrotation Xrotation
				JOINT lowerneck
				{
					OFFSET 0 0 0
					CHANNELS 3 Zrotation Yrotation Xrotation
					JOINT Neck
					{
						OFFSET 0.04686 1.69404 0.22159
						CHANNELS 3 Zrotation Yrotation Xrotation
						JOINT Head
						{
							OFFSET 0.00265 1.69305 -0.01513
							CHANNELS 3 Zrotation Yrotation Xrotation
							End Site
							{
								OFFSET -0.00415 1.80215 -0.03034
							}
						}
					}
				}
				JOINT LeftCollar
				{
					OFFSET 0 0 0
					CHANNELS 3 Zrotation Yrotation Xrotation
					JOINT LeftShoulder
					{
						OFFSET 3.67184 1.11724 -0.19002
CHANNELS 3 Zrotation Xrotation Yrotation
						JOINT LeftElbow
						{
OFFSET 0 -5.177140 -0.000000
CHANNELS 3 Zrotation Xrotation Yrotation
							JOINT LeftWrist
							{
OFFSET 0 -3.436790 -0.000000
CHANNELS 3 Zrotation Xrotation Yrotation
								JOINT lhand
								{
									OFFSET 0 0 0
CHANNELS 3 Zrotation Xrotation Yrotation
									JOINT LFingers
									{
OFFSET 0 -0.573120 -0.000000
CHANNELS 3 Zrotation Xrotation Yrotation
										End Site
										{
OFFSET 0 -0.462060 -0.000000
										}
									}
								}
								JOINT LThumb
								{
OFFSET 0 0.000000 0.000000
CHANNELS 3 Zrotation Xrotation Yrotation
									End Site
									{
OFFSET 0 -0.469120 0.469120
									}
								}
							}
						}
					}
				}
				JOINT RightCollar
				{
					OFFSET 0 0 0
					CHANNELS 3 Zrotation Yrotation Xrotation
					JOINT RightShoulder
					{
						OFFSET -3.59596 0.95831 -0.26050
CHANNELS 3 Zrotation Xrotation Yrotation
						JOINT RightElbow
						{
OFFSET 0 -5.239080 -0.000000
CHANNELS 3 Zrotation Xrotation Yrotation
							JOINT RightWrist
							{
OFFSET 0 -3.464850 -0.000000
CHANNELS 3 Zrotation Xrotation Yrotation
								JOINT rhand
								{
									OFFSET 0 0 0
CHANNELS 3 Zrotation Xrotation Yrotation
									JOINT RFingers
									{
OFFSET 0 -0.608750 -0.000000
CHANNELS 3 Zrotation Xrotation Yrotation
										End Site
										{
OFFSET 0 -0.490790 -0.000000
										}
									}
								}
								JOINT RThumb
								{
OFFSET 0 0.000000 0.000000
CHANNELS 3 Zrotation Xrotation Yrotation
									End Site
									{
OFFSET 0 -0.498290 0.498290
									}
								}
							}
						}
					}
				}
			}
		}
	}
}
MOTION
Frames: 7
Frame Time: 0.008333333333333333
5.925200 16.560400 -4.688100 -112.458000 -86.583800 112.565000 0.000000 0.000000 0.000000 -13.409000 4.161100 1.404600 0.528000 4.656600 12.931600 0.718400 5.607600 -19.016400 0.019900 -0.910900 -2.503800 0.000000 0.000000 0.000000 23.382900 4.672300 -5.793900 -2.607500 -10.030900 29.076700 -1.719300 -3.224700 -26.103400 -0.005300 -0.471100 1.294500 3.024600 -0.688800 -2.870400 0.482400 -1.062000 1.290200 -1.255600 -0.479400 2.891400 1.472000 -0.281100 -6.881300 2.581300 -0.641500 2.556200 0.538800 -0.243000 1.982400 -0.000000 0.000000 0.000000 43.532700 -4.471300 -23.120900 17.450600 -27.447900 4.293000 6.359300 -21.148900 -18.013900 0.000000 0.000000 0.000000 -7.125000 0.000000 0.000000 -20.548700 47.000300 1.057600 -0.000000 0.000000 0.000000 -40.317400 -12.055600 9.015600 -16.352200 -25.995800 -3.799000 -6.799400 6.625500 6.227600 0.000000 0.000000 0.000000 7.125000 0.000000 -0.000000 16.580400 35.813000 3.877600
5.927142 16.559902 -4.687902 -112.911185 -86.573035 112.977843 0.000000 0.000000 0.000000 -13.410041 4.175489 1.431345 0.529387 4.662345 12.947993 0.717645 5.631035 -19.025391 0.019399 -0.899313 -2.471799 0.000000 0.000000 0.000000 23.386811 4.685744 -5.762893 -2.609598 -10.034546 29.088637 -1.719300 -3.217575 -26.099933 -0.005546 -0.479886 1.318598 3.004094 -0.682134 -2.862756 0.452726 -1.049996 1.252269 -1.273558 -0.474292 2.848248 1.453591 -0.316431 -6.958277 2.639814 -0.698699 2.830301 0.559032 -0.265191 2.087572 0.000000 0.000000 0.000000 45.278727 -5.303153 -20.695903 16.710664 -26.474716 3.957541 5.958087 -20.572646 -17.766341 0.000000 0.000000 0.000000 -7.125000 0.000000 0.000000 -20.807174 46.716318 0.920250 0.000000 0.000000 0.000000 -42.415674 -12.561740 7.440454 -16.127240 -25.692752 -3.700986 -7.583394 6.295999 8.151626 0.000000 0.000000 0.000000 7.125000 0.000000 0.000000 16.388043 37.721297 3.029566
5.928986 16.559502 -4.689775 -113.125808 -86.508283 113.149159 0.000000 0.000000 0.000000 -13.341473 4.189841 1.460511 0.531192 4.670460 12.971088 0.718100 5.644160 -19.038901 0.019105 -0.893408 -2.455496 0.000000 0.000000 0.000000 23.474696 4.767141 -5.700739 -2.610986 -10.036877 29.096323 -1.721277 -3.268126 -26.137819 -0.005900 -0.494100 1.357799 3.002964 -0.675495 -2.844857 0.451584 -1.039033 1.204788 -1.272801 -0.470157 2.789641 1.441157 -0.361935 -6.941668 2.674281 -0.764182 3.013305 0.570088 -0.294267 2.145697 0.000000 0.000000 0.000000 47.157436 -5.519017 -19.257862 16.568400 -26.285201 3.894298 6.032179 -20.659335 -17.830179 0.000000 0.000000 0.000000 -7.125000 0.000000 0.000000 -20.766948 46.785737 0.955322 0.000000 0.000000 0.000000 -44.475214 -13.022654 5.954184 -15.919841 -25.411891 -3.611464 -8.550610 5.452967 6.346914 0.000000 0.000000 0.000000 7.125000 0.000000 0.000000 15.183975 36.028510 3.446477
5.932013 16.559204 -4.686607 -112.877369 -86.550461 112.848825 0.000000 0.000000 0.000000 -13.380978 4.208552 1.476329 0.533713 4.681139 13.001292 0.719169 5.608996 -19.025348 0.019727 -0.907467 -2.494335 0.000000 0.000000 0.000000 23.416394 4.671857 -5.687926 -2.612438 -10.039531 29.104885 -1.717076 -3.249204 -26.098700 -0.005004 -0.455913 1.252701 2.977707 -0.686941 -2.821391 0.413091 -1.050483 1.182949 -1.298297 -0.476504 2.753153 1.413618 -0.379034 -6.970771 2.740548 -0.792811 3.165247 0.595191 -0.304467 2.202258 0.000000 0.000000 0.000000 48.913582 -5.736944 -17.741227 16.512612 -26.210784 3.869576 5.961822 -20.774088 -17.971985 0.000000 0.000000 0.000000 -7.125000 0.000000 0.000000 -20.888388 46.909262 1.027637 0.000000 0.000000 0.000000 -46.462368 -13.473005 4.381284 -15.742108 -25.169736 -3.535606 -9.217427 4.995067 6.150014 0.000000 0.000000 0.000000 7.125000 0.000000 0.000000 14.599217 35.874066 3.364416
5.936030 16.558807 -4.686302 -112.784664 -86.532045 112.719225 0.000000 0.000000 0.000000 -13.355599 4.215474 1.482301 0.535777 4.690197 13.027008 0.719772 5.594646 -19.021942 0.019130 -0.893120 -2.454684 0.000000 0.000000 0.000000 23.452953 4.729389 -5.643630 -2.614070 -10.042444 29.114222 -1.720499 -3.275452 -26.135519 -0.005779 -0.490360 1.347415 2.961753 -0.691204 -2.789401 0.406746 -1.053504 1.158411 -1.295240 -0.479037 2.709823 1.366203 -0.400768 -7.050529 2.799297 -0.827446 3.337223 0.621214 -0.317287 2.275047 0.000000 0.000000 0.000000 50.598659 -5.885883 -16.335407 16.532463 -26.237380 3.878428 5.987003 -21.021426 -17.999171 0.000000 0.000000 0.000000 -7.125000 0.000000 0.000000 -20.877057 46.937842 1.042488 0.000000 0.000000 0.000000 -48.368055 -13.855637 2.806940 -15.675373 -25.078521 -3.507187 -9.561483 4.655120 6.452810 0.000000 0.000000 0.000000 7.125000 0.000000 0.000000 14.378333 36.190483 3.196438
5.939036 16.558747 -4.685382 -112.827533 -86.526454 112.746179 0.000000 0.000000 0.000000 -13.351890 4.217900 1.457719 0.539618 4.706691 13.073883 0.721064 5.579886 -19.024598 0.018800 -0.884937 -2.432251 0.000000 0.000000 0.000000 23.460151 4.748458 -5.639025 -2.614741 -10.043682 29.118194 -1.718129 -3.312040 -26.135702 -0.005423 -0.475253 1.305836 2.945045 -0.689553 -2.768290 0.392937 -1.048212 1.109851 -1.299150 -0.477830 2.648096 1.363233 -0.436515 -7.117168 2.795418 -0.881941 3.546646 0.618911 -0.340708 2.357464 0.000000 0.000000 0.000000 52.212136 -5.967471 -15.197502 16.566019 -26.282177 3.893275 6.397017 -21.479661 -18.404676 0.000000 0.000000 0.000000 -7.125000 0.000000 0.000000 -20.677211 47.371414 1.261861 0.000000 0.000000 0.000000 -50.159848 -14.135139 1.300139 -15.612830 -24.992899 -3.480757 -9.449194 4.559568 6.739554 0.000000 0.000000 0.000000 7.125000 0.000000 0.000000 14.528258 36.465042 3.131113
5.941647 16.558125 -4.683642 -112.631432 -86.501503 112.531028 0.000000 0.000000 0.000000 -13.325625 4.212465 1.436305 0.544284 4.726516 13.130126 0.724918 5.555717 -19.047473 0.018928 -0.887859 -2.440313 0.000000 0.000000 0.000000 23.482297 4.731092 -5.632196 -2.614418 -10.043035 29.116209 -1.715221 -3.315605 -26.116405 -0.005193 -0.466813 1.282704 2.947741 -0.696093 -2.791694 0.390598 -1.057456 1.096720 -1.303826 -0.482446 2.647246 1.345999 -0.454370 -7.221390 2.820413 -0.913615 3.736728 0.629155 -0.352207 2.440944 0.000000 0.000000 0.000000 53.801238 -6.038136 -14.141290 16.573230 -26.291806 3.896406 6.434141 -22.098041 -17.864095 0.000000 0.000000 0.000000 -7.125000 0.000000 0.000000 -20.420109 46.869648 0.981980 0.000000 0.000000 0.000000 -51.926079 -14.448037 -0.062542 -15.505325 -24.845305 -3.435444 -9.378763 4.322865 6.599879 0.000000 0.000000 0.000000 7.125000 0.000000 0.000000 14.557726 36.324035 3.189533
